<?xml version="1.0" encoding="UTF-8" standalone="no"?>
<!DOCTYPE svg PUBLIC "-//W3C//DTD SVG 1.1//EN" "http://www.w3.org/Graphics/SVG/1.1/DTD/svg11.dtd">
<!-- Generated by Microsoft Visio, SVG Export octave_application_sync_module_states.svg SDK test -->
<svg xmlns="http://www.w3.org/2000/svg" xmlns:xlink="http://www.w3.org/1999/xlink" xmlns:ev="http://www.w3.org/2001/xml-events"
		width="8.29178in" height="8.3102in" viewBox="0 0 597.008 598.335" xml:space="preserve" color-interpolation-filters="sRGB"
		class="st22">
	<style type="text/css">
	<![CDATA[
		.st1 {marker-end:url(#mrkr4-6);stroke:#f58220;stroke-linecap:butt;stroke-width:1}
		.st2 {fill:#f58220;fill-opacity:1;stroke:#f58220;stroke-opacity:1;stroke-width:0.28409090909091}
		.st3 {fill:#ffcd00;stroke:none;stroke-width:1}
		.st4 {fill:#333f48;font-family:Arial;font-size:0.833336em;font-weight:bold}
		.st5 {fill:#f58220;stroke:none;stroke-width:1}
		.st6 {fill:#333f48;font-family:Arial;font-size:0.75em;font-weight:bold}
		.st7 {fill:#ffffff;stroke:#0033a0;stroke-width:1}
		.st8 {fill:#0033a0;font-family:Arial;font-size:0.75em;font-weight:bold}
		.st9 {font-size:1em}
		.st10 {fill:none;stroke:none;stroke-width:1}
		.st11 {fill:#333f48;font-family:Arial;font-size:0.75em}
		.st12 {fill:#feffff;stroke:#0033a0;stroke-width:1}
		.st13 {fill:#ee2f4e;stroke:none;stroke-width:1}
		.st14 {fill:#ffffff;font-family:Arial;font-size:0.833336em}
		.st15 {marker-end:url(#mrkr4-183);stroke:#ee2f4e;stroke-linecap:butt;stroke-width:1}
		.st16 {fill:#ee2f4e;fill-opacity:1;stroke:#ee2f4e;stroke-opacity:1;stroke-width:0.28409090909091}
		.st17 {fill:none;stroke:#0033a0;stroke-width:1}
		.st18 {fill:#ffffff;font-family:Arial;font-size:0.666664em}
		.st19 {marker-end:url(#mrkr4-231);stroke:#ffcd00;stroke-linecap:butt;stroke-width:1}
		.st20 {fill:#ffcd00;fill-opacity:1;stroke:#ffcd00;stroke-opacity:1;stroke-width:0.28409090909091}
		.st21 {fill:none;stroke:#333f48;stroke-width:1}
		.st22 {fill:none;fill-rule:evenodd;font-size:12px;overflow:visible;stroke-linecap:square;stroke-miterlimit:3}
	]]>
	</style>

	<defs id="Markers">
		<g id="lend4">
			<path d="M 2 1 L 0 0 L 2 -1 L 2 1 " style="stroke:none"/>
		</g>
		<marker id="mrkr4-6" class="st2" refX="-7.04" orient="auto" markerUnits="strokeWidth" overflow="visible">
			<use xlink:href="#lend4" transform="scale(-3.52,-3.52) "/>
		</marker>
		<marker id="mrkr4-183" class="st16" refX="-7.04" orient="auto" markerUnits="strokeWidth" overflow="visible">
			<use xlink:href="#lend4" transform="scale(-3.52,-3.52) "/>
		</marker>
		<marker id="mrkr4-231" class="st20" refX="-7.04" orient="auto" markerUnits="strokeWidth" overflow="visible">
			<use xlink:href="#lend4" transform="scale(-3.52,-3.52) "/>
		</marker>
	</defs>
	<g>
		<title>nRF Connect SDK diagram</title>
		<g id="shape312-1" transform="translate(147.843,-101.04)">
			<title>Dynamic connector.312</title>
			<path d="M-7.09 598.33 L-7.09 642.49" class="st1"/>
		</g>
		<g id="shape309-7" transform="translate(133.669,-280.496)">
			<title>Dynamic connector.309</title>
			<path d="M7.09 598.33 L7.09 639.48" class="st1"/>
		</g>
		<g id="shape354-12" transform="translate(147.86,-408.055)">
			<title>Dynamic connector.354</title>
			<path d="M-7.07 598.33 L-7.1 637.76" class="st1"/>
		</g>
		<g id="shape150-17" transform="translate(307.133,-481.125)">
			<title>Nordic Light Grey.150</title>
			<desc>PRES_STATE_INIT</desc>
			<rect x="0" y="555.442" width="127.877" height="42.8927" class="st3"/>
			<text x="18.93" y="579.89" class="st4">PRES_STATE_INIT</text>		</g>
		<g id="shape151-20" transform="translate(307.133,-417.159)">
			<title>Nordic Light Grey.151</title>
			<desc>PRES_STATE_MEAS</desc>
			<rect x="0" y="555.442" width="127.877" height="42.8927" class="st3"/>
			<text x="13.93" y="579.89" class="st4">PRES_STATE_MEAS</text>		</g>
		<g id="shape152-23" transform="translate(307.133,-184.921)">
			<title>Nordic Light Grey.152</title>
			<desc>PRES_STATE_WAIT</desc>
			<rect x="0" y="555.442" width="127.877" height="42.8927" class="st3"/>
			<text x="15.6" y="579.89" class="st4">PRES_STATE_WAIT</text>		</g>
		<g id="shape153-26" transform="translate(307.717,-66.1503)">
			<title>Nordic Light Grey.153</title>
			<desc>PRES_STATE_LOCKED</desc>
			<rect x="0" y="555.442" width="127.877" height="42.8927" class="st3"/>
			<text x="7.26" y="579.89" class="st4">PRES_STATE_LOCKED</text>		</g>
		<g id="shape154-29" transform="translate(80.9449,-553.853)">
			<title>Nordic Light Grey.154</title>
			<desc>DRIFT_STATE_INIT</desc>
			<rect x="0" y="555.442" width="119.622" height="42.8927" class="st5"/>
			<text x="13.7" y="579.89" class="st4">DRIFT_STATE_INIT</text>		</g>
		<g id="shape156-32" transform="translate(80.9449,-446.789)">
			<title>Nordic Light Grey.156</title>
			<desc>DRIFT_STATE_CALIB</desc>
			<rect x="0" y="555.442" width="119.622" height="42.8927" class="st5"/>
			<text x="7.87" y="579.89" class="st4">DRIFT_STATE_CALIB</text>		</g>
		<g id="shape157-35" transform="translate(80.9449,-318.697)">
			<title>Nordic Light Grey.157</title>
			<desc>DRIFT_STATE_OFFSET</desc>
			<rect x="0" y="555.442" width="119.622" height="42.8927" class="st5"/>
			<text x="9.06" y="579.59" class="st6">DRIFT_STATE_OFFSET</text>		</g>
		<g id="shape158-38" transform="translate(80.9449,-137.216)">
			<title>Nordic Light Grey.158</title>
			<desc>DRIFT_STATE_LOCKED</desc>
			<rect x="0" y="555.442" width="119.622" height="42.8927" class="st5"/>
			<text x="7.81" y="579.59" class="st6">DRIFT_STATE_LOCKED</text>		</g>
		<g id="shape159-41" transform="translate(546.551,-346.519) rotate(45)">
			<title>Nordic Fall</title>
			<rect x="0" y="573.821" width="24.514" height="24.514" class="st5"/>
		</g>
		<g id="shape160-43" transform="translate(129.169,-408.055)">
			<title>Sheet.160</title>
			<ellipse cx="11.622" cy="586.996" rx="11.622" ry="11.3386" class="st5"/>
		</g>
		<g id="shape162-45" transform="translate(102.276,-372.622)">
			<title>Sheet.162</title>
			<desc>Adjust audio clock frequency</desc>
			<rect x="0" y="569.988" width="76.9606" height="28.3465" class="st7"/>
			<text x="11.23" y="581.46" class="st8">Adjust audio <tspan x="4.22" dy="1.2em" class="st9">clock frequency</tspan></text>		</g>
		<g id="shape164-49" transform="translate(129.134,-280.496)">
			<title>Sheet.164</title>
			<ellipse cx="11.622" cy="586.996" rx="11.622" ry="11.3386" class="st5"/>
		</g>
		<g id="shape166-51" transform="translate(546.508,-39.7249) rotate(45)">
			<title>Nordic Fall.166</title>
			<rect x="0" y="573.821" width="24.514" height="24.514" class="st5"/>
		</g>
		<g id="shape167-53" transform="translate(129.134,-101.04)">
			<title>Sheet.167</title>
			<ellipse cx="11.622" cy="586.996" rx="11.622" ry="11.3386" class="st5"/>
		</g>
		<g id="shape169-55" transform="translate(546.508,142.741) rotate(45)">
			<title>Nordic Fall.169</title>
			<rect x="0" y="573.821" width="24.514" height="24.514" class="st5"/>
		</g>
		<g id="shape170-57" transform="translate(66.7717,-507.594)">
			<title>Sheet.170</title>
			<desc>Audio data received?</desc>
			<rect x="0" y="569.988" width="56.6929" height="28.3465" class="st10"/>
			<text x="6.83" y="581.46" class="st11">Audio data <tspan x="8.83" dy="1.2em" class="st9">received?</tspan></text>		</g>
		<g id="shape171-61" transform="translate(147.864,-504.433)">
			<title>Dynamic connector</title>
			<path d="M-7.07 598.33 L-7.09 606.05" class="st1"/>
		</g>
		<g id="shape172-66" transform="translate(158.133,-521.767)">
			<title>Dynamic connector.172</title>
			<path d="M0 598.33 L71.63 598.33 L71.63 544.8 L49.47 544.8" class="st1"/>
		</g>
		<g id="shape173-71" transform="translate(106.783,-489.681)">
			<title>Sheet.173</title>
			<desc>Yes</desc>
			<rect x="0" y="582.617" width="34.668" height="15.718" class="st10"/>
			<text x="9.58" y="593.18" class="st11">Yes</text>		</g>
		<g id="shape174-74" transform="translate(158.133,-523.383)">
			<title>Sheet.174</title>
			<desc>No</desc>
			<rect x="0" y="582.617" width="23.2441" height="15.718" class="st10"/>
			<text x="5.87" y="593.18" class="st11">No</text>		</g>
		<g id="shape175-77" transform="translate(133.691,-553.853)">
			<title>Dynamic connector.175</title>
			<path d="M7.07 598.33 L7.09 606.05" class="st1"/>
		</g>
		<g id="shape176-82" transform="translate(34.5984,-405.22)">
			<title>Sheet.176</title>
			<desc>Wait for a predefined amount of function calls</desc>
			<rect x="0" y="569.988" width="84.189" height="28.3465" class="st10"/>
			<text x="22.84" y="576.06" class="st11">Wait for a <tspan x="4.57" dy="1.2em" class="st9">predefined amount </tspan><tspan
						x="11.08" dy="1.2em" class="st9">of function calls</tspan></text>		</g>
		<g id="shape295-87" transform="translate(133.687,-446.789)">
			<title>Dynamic connector.295</title>
			<path d="M7.07 598.33 L7.07 604.67 L7.1 604.67 L7.1 607.35" class="st1"/>
		</g>
		<g id="shape297-92" transform="translate(179.236,-369.461)">
			<title>Sheet.297</title>
			<desc>Calibrate and zero out local delay</desc>
			<rect x="0" y="563.667" width="65.6221" height="34.668" class="st10"/>
			<text x="4" y="572.3" class="st11">Calibrate and <tspan x="4" dy="1.2em" class="st9">zero out local </tspan><tspan
						x="4" dy="1.3em" class="st9">delay</tspan></text>		</g>
		<g id="shape299-97" transform="translate(179.236,-239.048)">
			<title>Sheet.299</title>
			<desc>Adjust I2S offset relative to SDU reference</desc>
			<rect x="0" y="563.667" width="76.2093" height="34.668" class="st10"/>
			<text x="4" y="572.75" class="st11">Adjust I2S offset <tspan x="4" dy="1em" class="st9">relative to SDU </tspan><tspan
						x="4" dy="1.25em" class="st9">reference</tspan></text>		</g>
		<g id="shape301-102" transform="translate(102.276,-245.369)">
			<title>Sheet.301</title>
			<desc>Adjust audio clock frequency</desc>
			<rect x="0" y="569.988" width="76.9606" height="28.3465" class="st12"/>
			<text x="11.23" y="581.46" class="st8">Adjust audio <tspan x="4.22" dy="1.2em" class="st9">clock frequency</tspan></text>		</g>
		<g id="shape302-106" transform="translate(102.276,-65.063)">
			<title>Sheet.302</title>
			<desc>Adjust audio clock frequency</desc>
			<rect x="0" y="569.988" width="76.9606" height="28.3465" class="st7"/>
			<text x="11.23" y="581.46" class="st8">Adjust audio <tspan x="4.22" dy="1.2em" class="st9">clock frequency</tspan></text>		</g>
		<g id="shape303-110" transform="translate(179.236,-65.063)">
			<title>Sheet.303</title>
			<desc>Minor corrections</desc>
			<rect x="0" y="569.988" width="65.6221" height="28.3465" class="st10"/>
			<text x="4" y="580.41" class="st11">Minor <tspan x="4" dy="1.25em" class="st9">corrections</tspan></text>		</g>
		<g id="shape304-114" transform="translate(37.8583,-277.661)">
			<title>Sheet.304</title>
			<desc>Wait for a predefined amount of function calls</desc>
			<rect x="0" y="569.988" width="84.189" height="28.3465" class="st10"/>
			<text x="22.84" y="576.06" class="st11">Wait for a <tspan x="4.57" dy="1.2em" class="st9">predefined amount </tspan><tspan
						x="11.08" dy="1.2em" class="st9">of function calls</tspan></text>		</g>
		<g id="shape305-119" transform="translate(37.8583,-98.2058)">
			<title>Sheet.305</title>
			<desc>Wait for a predefined amount of function calls</desc>
			<rect x="0" y="569.988" width="84.189" height="28.3465" class="st10"/>
			<text x="22.84" y="576.06" class="st11">Wait for a <tspan x="4.57" dy="1.2em" class="st9">predefined amount </tspan><tspan
						x="11.08" dy="1.2em" class="st9">of function calls</tspan></text>		</g>
		<g id="shape307-124" transform="translate(147.843,-318.697)">
			<title>Dynamic connector.307</title>
			<path d="M-7.09 598.33 L-7.09 606.82" class="st1"/>
		</g>
		<g id="shape310-129" transform="translate(147.843,-197.639)">
			<title>Dynamic connector.310</title>
			<path d="M-7.09 598.33 L-7.09 608.82" class="st1"/>
		</g>
		<g id="shape311-134" transform="translate(133.669,-137.554)">
			<title>Dynamic connector.311</title>
			<path d="M7.09 598.67 L7.09 605.13" class="st1"/>
		</g>
		<g id="shape314-139" transform="translate(66.729,-197.639)">
			<title>Sheet.314</title>
			<desc>Error small enough?</desc>
			<rect x="0" y="569.988" width="56.6929" height="28.3465" class="st10"/>
			<text x="6.6" y="581.46" class="st11">Error small <tspan x="10.83" dy="1.2em" class="st9">enough?</tspan></text>		</g>
		<g id="shape315-143" transform="translate(112.126,-181.921)">
			<title>Sheet.315</title>
			<desc>Yes</desc>
			<rect x="0" y="582.617" width="28.6299" height="15.718" class="st10"/>
			<text x="6.56" y="593.18" class="st11">Yes</text>		</g>
		<g id="shape316-146" transform="translate(158.09,-214.973)">
			<title>Dynamic connector.316</title>
			<path d="M0 598.33 L100.02 598.33 L100.02 473.16 L49.52 473.16" class="st1"/>
		</g>
		<g id="shape317-151" transform="translate(158.09,-216.018)">
			<title>Sheet.317</title>
			<desc>No</desc>
			<rect x="0" y="582.617" width="23.2441" height="15.718" class="st10"/>
			<text x="5.87" y="593.18" class="st11">No</text>		</g>
		<g id="shape318-154" transform="translate(158.09,-32.5072)">
			<title>Dynamic connector.318</title>
			<path d="M0 598.33 L100.02 598.33 L100.02 472.18 L49.52 472.18" class="st1"/>
		</g>
		<g id="shape319-159" transform="translate(158.09,-34.1232)">
			<title>Sheet.319</title>
			<desc>Yes</desc>
			<rect x="0" y="582.617" width="28.6299" height="15.718" class="st10"/>
			<text x="6.56" y="593.18" class="st11">Yes</text>		</g>
		<g id="shape320-162" transform="translate(123.422,-32.5072)">
			<title>Dynamic connector.320</title>
			<path d="M0 598.33 L-103.42 598.33 L-103.42 290.7 L-49.52 290.7" class="st1"/>
		</g>
		<g id="shape321-167" transform="translate(100.178,-34.1232)">
			<title>Sheet.321</title>
			<desc>No</desc>
			<rect x="0" y="582.617" width="23.2441" height="15.718" class="st10"/>
			<text x="5.87" y="593.18" class="st11">No</text>		</g>
		<g id="shape322-170" transform="translate(66.7717,-1)">
			<title>Sheet.322</title>
			<desc>Error small enough?</desc>
			<rect x="0" y="569.988" width="56.6929" height="28.3465" class="st10"/>
			<text x="6.6" y="581.46" class="st11">Error small <tspan x="10.83" dy="1.2em" class="st9">enough?</tspan></text>		</g>
		<g id="shape324-174" transform="translate(307.133,-545.091)">
			<title>Nordic Red</title>
			<desc>Drift compensation not in DRIFT_STATE_LOCKED</desc>
			<rect x="0" y="555.442" width="127.877" height="42.8927" class="st13"/>
			<text x="8.63" y="573.89" class="st14">Drift compensation not in <tspan x="6.98" dy="1.2em" class="st9">DRIFT_STATE_LOCKED</tspan></text>		</g>
		<g id="shape325-178" transform="translate(200.567,-585.22)">
			<title>Dynamic connector.325</title>
			<path d="M0 598.33 L57.54 598.33 L57.54 617.02 L99.53 617.02" class="st15"/>
		</g>
		<g id="shape326-184" transform="translate(200.567,-468.235)">
			<title>Dynamic connector.326</title>
			<path d="M0 598.33 L57.54 598.33 L57.54 500.03 L99.53 500.03" class="st15"/>
		</g>
		<g id="shape327-189" transform="translate(200.567,-349.878)">
			<title>Dynamic connector.327</title>
			<path d="M0 598.33 L57.54 598.33 L57.54 381.68 L99.53 381.68" class="st15"/>
		</g>
		<g id="shape328-194" transform="translate(359.449,-373.408)">
			<title>Sheet.328</title>
			<ellipse cx="11.622" cy="586.996" rx="11.622" ry="11.3386" class="st3"/>
		</g>
		<g id="shape329-196" transform="translate(359.449,-144.498)">
			<title>Sheet.329</title>
			<ellipse cx="11.622" cy="586.996" rx="11.622" ry="11.3386" class="st3"/>
		</g>
		<g id="shape330-198" transform="translate(332.591,-318.199)">
			<title>Sheet.330</title>
			<desc>Adjust presentation delay</desc>
			<rect x="0" y="563.706" width="76.9606" height="34.6286" class="st17"/>
			<text x="24.48" y="572.92" class="st8">Adjust <tspan x="11.48" dy="1.2em" class="st9">presentation </tspan><tspan
						x="26.97" dy="1.2em" class="st9">delay</tspan></text>		</g>
		<g id="shape331-203" transform="translate(776.823,-107.871) rotate(45)">
			<title>Nordic Fall.331</title>
			<rect x="0" y="573.821" width="24.514" height="24.514" class="st3"/>
		</g>
		<g id="shape332-205" transform="translate(390.891,-370.573)">
			<title>Sheet.332</title>
			<desc>Collect a predefined amount of sample data</desc>
			<rect x="0" y="569.988" width="84.189" height="28.3465" class="st10"/>
			<text x="24.59" y="576.06" class="st11">Collect a <tspan x="4.57" dy="1.2em" class="st9">predefined amount </tspan><tspan
						x="12.58" dy="1.2em" class="st9">of sample data</tspan></text>		</g>
		<g id="shape333-210" transform="translate(458.027,-184.921)">
			<title>Nordic Red.333</title>
			<desc>Two adjacent SDU references not from two consecutive audio fr...</desc>
			<rect x="0" y="555.442" width="110.402" height="42.8927" class="st13"/>
			<text x="21.85" y="564.89" class="st18">Two adjacent SDU <tspan x="13.18" dy="1.2em" class="st9">references not from two </tspan><tspan
						x="9.84" dy="1.2em" class="st9">consecutive audio frames </tspan><tspan x="14.73" dy="1.2em" class="st9">(Bluetooth LE packets)</tspan></text>		</g>
		<g id="shape334-216" transform="translate(389.399,-141.664)">
			<title>Sheet.334</title>
			<desc>Wait for a predefined amount of function calls</desc>
			<rect x="0" y="569.988" width="84.189" height="28.3465" class="st10"/>
			<text x="22.84" y="576.06" class="st11">Wait for a <tspan x="4.57" dy="1.2em" class="st9">predefined amount </tspan><tspan
						x="11.08" dy="1.2em" class="st9">of function calls</tspan></text>		</g>
		<g id="shape335-221" transform="translate(363.984,-545.091)">
			<title>Dynamic connector.335</title>
			<path d="M7.09 598.33 L7.09 612.37" class="st15"/>
		</g>
		<g id="shape336-226" transform="translate(363.984,-481.125)">
			<title>Dynamic connector.336</title>
			<path d="M7.09 598.33 L7.09 612.37" class="st19"/>
		</g>
		<g id="shape337-232" transform="translate(363.984,-417.159)">
			<title>Dynamic connector.337</title>
			<path d="M7.09 598.33 L7.09 612.37" class="st19"/>
		</g>
		<g id="shape338-237" transform="translate(363.984,-373.408)">
			<title>Dynamic connector.338</title>
			<path d="M7.09 598.33 L7.09 611.88" class="st19"/>
		</g>
		<g id="shape339-242" transform="translate(363.984,-318.199)">
			<title>Dynamic connector.339</title>
			<path d="M7.09 598.33 L7.09 609.04" class="st19"/>
		</g>
		<g id="shape340-247" transform="translate(388.405,-283.119)">
			<title>Dynamic connector.340</title>
			<path d="M0 598.33 L188.6 598.33 L188.6 793.86 L54.23 793.86" class="st19"/>
		</g>
		<g id="shape341-252" transform="translate(378.157,-184.921)">
			<title>Dynamic connector.341</title>
			<path d="M-7.09 598.33 L-7.09 609.04" class="st19"/>
		</g>
		<g id="shape342-257" transform="translate(371.071,-144.498)">
			<title>Dynamic connector.342</title>
			<path d="M0 598.33 L0 611.01 L-99.96 611.01 L-99.96 240.26 L-70.98 240.26" class="st19"/>
		</g>
		<g id="shape344-262" transform="translate(458.027,-199.281)">
			<title>Dynamic connector.344</title>
			<path d="M0 591.25 L-15.98 591.25" class="st15"/>
		</g>
		<g id="shape345-267" transform="translate(363.984,-265.785)">
			<title>Dynamic connector.345</title>
			<path d="M7.09 598.33 L7.09 629.27" class="st19"/>
		</g>
		<g id="shape346-272" transform="translate(395.307,-284.735)">
			<title>Sheet.346</title>
			<desc>No</desc>
			<rect x="0" y="582.617" width="23.2441" height="15.718" class="st10"/>
			<text x="5.87" y="593.18" class="st11">No</text>		</g>
		<g id="shape347-275" transform="translate(371.071,-248.039)">
			<title>Sheet.347</title>
			<desc>Yes</desc>
			<rect x="0" y="582.617" width="34.668" height="15.718" class="st10"/>
			<text x="9.58" y="593.18" class="st11">Yes</text>		</g>
		<g id="shape348-278" transform="translate(283.785,-240.553)">
			<title>Sheet.348</title>
			<desc>Presentation delay absolute value is larger than ½ of an audi...</desc>
			<rect x="0" y="538.136" width="76.2093" height="60.1989" class="st10"/>
			<text x="12.84" y="543.94" class="st11">Presentation <tspan x="9.08" dy="1.2em" class="st9">delay absolute </tspan><tspan
						x="10.09" dy="1.2em" class="st9">value is larger </tspan><tspan x="13.08" dy="1.2em" class="st9">than ½ of an </tspan><tspan
						x="15.34" dy="1.2em" class="st9">audio block </tspan><tspan x="23.09" dy="1.2em" class="st9">period?</tspan></text>		</g>
		<g id="group351-286" transform="translate(456.535,-502.571)">
			<title>Sheet.351</title>
			<g id="shape88-287">
				<title>Nordic Blue.88</title>
				<rect x="0" y="503.571" width="127.877" height="94.7638" class="st21"/>
			</g>
			<g id="shape89-289" transform="translate(7.08661,-76.3017)">
				<title>Nordic Lake.89</title>
				<rect x="0" y="588.274" width="16.0192" height="10.0608" class="st5"/>
			</g>
			<g id="shape97-291" transform="translate(7.08661,-52.9109)">
				<title>Nordic Lake.97</title>
				<rect x="0" y="588.274" width="16.0192" height="10.0608" class="st3"/>
			</g>
			<g id="shape98-293" transform="translate(27.8581,-75.4863)">
				<title>Sheet.98</title>
				<desc>Drift compensation</desc>
				<rect x="0" y="588.274" width="97.0781" height="10.0608" class="st10"/>
				<text x="4" y="596" class="st11">Drift compensation</text>			</g>
			<g id="shape99-296" transform="translate(28.075,-52.9109)">
				<title>Sheet.99</title>
				<desc>Presentation compensation</desc>
				<rect x="0" y="588.274" width="97.0781" height="10.0608" class="st10"/>
				<text x="4" y="590.6" class="st11">Presentation <tspan x="4" dy="1.2em" class="st9">compensation</tspan></text>			</g>
			<g id="shape100-300" transform="translate(7.08661,-28.5329)">
				<title>Nordic Lake.100</title>
				<rect x="0" y="588.274" width="16.0192" height="10.0608" class="st13"/>
			</g>
			<g id="shape101-302" transform="translate(28.075,-28.5329)">
				<title>Sheet.101</title>
				<desc>External factor</desc>
				<rect x="0" y="588.274" width="97.0781" height="10.0608" class="st10"/>
				<text x="4" y="596" class="st11">External factor</text>			</g>
			<g id="shape349-305" transform="translate(7.08661,-9.32932)">
				<title>Nordic Lake.349</title>
				<rect x="0" y="588.274" width="16.0192" height="10.0608" class="st17"/>
			</g>
			<g id="shape350-307" transform="translate(28.3465,-9.32932)">
				<title>Sheet.350</title>
				<desc>Adjustments</desc>
				<rect x="0" y="588.274" width="97.0781" height="10.0608" class="st10"/>
				<text x="4" y="596" class="st11">Adjustments</text>			</g>
		</g>
	</g>
</svg>
