<?xml version="1.0" encoding="UTF-8" standalone="no"?>
<!DOCTYPE svg PUBLIC "-//W3C//DTD SVG 1.1//EN" "http://www.w3.org/Graphics/SVG/1.1/DTD/svg11.dtd">
<!-- Generated by Microsoft Visio, SVG Export octave_application_structure_sync_module.svg SDK test -->
<svg xmlns="http://www.w3.org/2000/svg" xmlns:xlink="http://www.w3.org/1999/xlink" xmlns:ev="http://www.w3.org/2001/xml-events"
		width="7.72032in" height="8.0199in" viewBox="0 0 555.863 577.433" xml:space="preserve" color-interpolation-filters="sRGB"
		class="st40">
	<style type="text/css">
	<![CDATA[
		.st1 {fill:#d9e1e2;stroke:none;stroke-width:1}
		.st2 {fill:#333f48;font-family:Arial;font-size:0.75em}
		.st3 {fill:#00a9ce;stroke:none;stroke-width:1}
		.st4 {fill:#ffffff;font-family:Arial;font-size:0.916672em}
		.st5 {fill:none;stroke:#0033a0;stroke-dasharray:3.75,3.75;stroke-width:1.25}
		.st6 {fill:#ffffff;font-family:Arial;font-size:0.833336em}
		.st7 {font-size:1em}
		.st8 {fill:#768692;stroke:none;stroke-width:1}
		.st9 {fill:#ffffff;font-family:Arial;font-size:0.75em}
		.st10 {fill:none;stroke:#333f48;stroke-dasharray:3,3;stroke-width:1}
		.st11 {fill:none;stroke:none;stroke-width:1}
		.st12 {fill:#333f48;font-family:Arial;font-size:0.916672em}
		.st13 {fill:#768692;font-family:Arial;font-size:0.75em}
		.st14 {fill:#768692;font-family:Arial;font-size:0.833336em}
		.st15 {fill:#00a9ce;font-family:Arial;font-size:0.833336em}
		.st16 {fill:#0033a0;font-family:Arial;font-size:0.833336em;font-weight:bold}
		.st17 {fill:#d0df00;stroke:none;stroke-width:1}
		.st18 {fill:#333f48;font-family:Arial;font-size:0.833336em}
		.st19 {fill:#ffcd00;stroke:none;stroke-width:1}
		.st20 {fill:#333f48;font-family:Arial;font-size:0.666664em;font-weight:bold}
		.st21 {font-size:1em;font-weight:normal}
		.st22 {fill:#f58220;stroke:none;stroke-width:1}
		.st23 {fill:#333f48;font-family:Arial;font-size:0.75em;font-weight:bold}
		.st24 {marker-end:url(#mrkr4-84);stroke:#00a9ce;stroke-linecap:butt;stroke-width:1}
		.st25 {fill:#00a9ce;fill-opacity:1;stroke:#00a9ce;stroke-opacity:1;stroke-width:0.28409090909091}
		.st26 {marker-start:url(#mrkr4-100);stroke:#00a9ce;stroke-linecap:butt;stroke-width:1}
		.st27 {marker-start:url(#mrkr4-116);stroke:#768692;stroke-linecap:butt;stroke-width:1}
		.st28 {fill:#768692;fill-opacity:1;stroke:#768692;stroke-opacity:1;stroke-width:0.28409090909091}
		.st29 {marker-start:url(#mrkr4-122);stroke:#0033a0;stroke-linecap:butt;stroke-width:1}
		.st30 {fill:#0033a0;fill-opacity:1;stroke:#0033a0;stroke-opacity:1;stroke-width:0.28409090909091}
		.st31 {marker-end:url(#mrkr4-128);stroke:#768692;stroke-linecap:butt;stroke-width:1}
		.st32 {fill:none;stroke:#0033a0;stroke-width:1}
		.st33 {fill:#0033a0;font-family:Arial;font-size:0.75em}
		.st34 {marker-end:url(#mrkr4-84);marker-start:url(#mrkr4-100);stroke:#00a9ce;stroke-linecap:butt;stroke-width:1}
		.st35 {marker-end:url(#mrkr4-171);stroke:#0033a0;stroke-linecap:butt;stroke-width:1}
		.st36 {fill:#333f48;font-family:Arial;font-size:0.666664em}
		.st37 {fill:none;stroke:#333f48;stroke-width:1}
		.st38 {marker-end:url(#mrkr4-221);stroke:#d0df00;stroke-linecap:butt;stroke-width:1}
		.st39 {fill:#d0df00;fill-opacity:1;stroke:#d0df00;stroke-opacity:1;stroke-width:0.28409090909091}
		.st40 {fill:none;fill-rule:evenodd;font-size:12px;overflow:visible;stroke-linecap:square;stroke-miterlimit:3}
	]]>
	</style>

	<defs id="Markers">
		<g id="lend4">
			<path d="M 2 1 L 0 0 L 2 -1 L 2 1 " style="stroke:none"/>
		</g>
		<marker id="mrkr4-84" class="st25" refX="-7.04" orient="auto" markerUnits="strokeWidth" overflow="visible">
			<use xlink:href="#lend4" transform="scale(-3.52,-3.52) "/>
		</marker>
		<marker id="mrkr4-100" class="st25" refX="6.68" orient="auto" markerUnits="strokeWidth" overflow="visible">
			<use xlink:href="#lend4" transform="scale(3.52) "/>
		</marker>
		<marker id="mrkr4-116" class="st28" refX="6.68" orient="auto" markerUnits="strokeWidth" overflow="visible">
			<use xlink:href="#lend4" transform="scale(3.52) "/>
		</marker>
		<marker id="mrkr4-122" class="st30" refX="6.68" orient="auto" markerUnits="strokeWidth" overflow="visible">
			<use xlink:href="#lend4" transform="scale(3.52) "/>
		</marker>
		<marker id="mrkr4-128" class="st28" refX="-7.04" orient="auto" markerUnits="strokeWidth" overflow="visible">
			<use xlink:href="#lend4" transform="scale(-3.52,-3.52) "/>
		</marker>
		<marker id="mrkr4-171" class="st30" refX="-7.04" orient="auto" markerUnits="strokeWidth" overflow="visible">
			<use xlink:href="#lend4" transform="scale(-3.52,-3.52) "/>
		</marker>
		<marker id="mrkr4-221" class="st39" refX="-7.04" orient="auto" markerUnits="strokeWidth" overflow="visible">
			<use xlink:href="#lend4" transform="scale(-3.52,-3.52) "/>
		</marker>
	</defs>
	<g>
		<title>nRF Connect SDK diagram</title>
		<g id="shape41-1" transform="translate(426.943,-447.084)">
			<title>Nordic Middle Grey</title>
			<desc>audio_codec.c</desc>
			<rect x="0" y="513.281" width="91.8083" height="64.1525" class="st1"/>
			<text x="29.77" y="570.73" class="st2">audio_codec.c</text>		</g>
		<g id="shape23-4" transform="translate(1,-1)">
			<title>Nordic Lake</title>
			<desc>audio_i2s.c</desc>
			<rect x="0" y="544.053" width="551.767" height="33.3804" class="st3"/>
			<text x="248.06" y="564.04" class="st4">audio_i2s.c</text>		</g>
		<g id="shape25-7" transform="translate(2.84596,-46.3543)">
			<title>Nordic Blue.25</title>
			<path d="M0 577.43 L551.77 577.43 L551.77 191.76 L0 191.76 L0 577.43 Z" class="st5"/>
		</g>
		<g id="shape31-9" transform="translate(435.129,-472.187)">
			<title>Nordic Lake.31</title>
			<desc>I2S RX FIFO</desc>
			<rect x="0" y="544.053" width="75.1181" height="33.3804" class="st3"/>
			<text x="30.05" y="557.74" class="st6">I2S <tspan x="17.84" dy="1.2em" class="st7">RX FIFO</tspan></text>		</g>
		<g id="shape32-13" transform="translate(155.367,-440.042)">
			<title>Nordic Sky</title>
			<desc>audio_sync_timer.c</desc>
			<rect x="0" y="561.514" width="91.8083" height="15.9188" class="st8"/>
			<text x="7.14" y="572.17" class="st9">audio_sync_timer.c</text>		</g>
		<g id="shape33-16" transform="translate(413.586,-46.3543)">
			<title>Nordic Blue.33</title>
			<path d="M0 577.43 L0.28 577.43 L0.28 47.35 L0 47.35 L0 577.43 Z" class="st10"/>
		</g>
		<g id="shape34-18" transform="translate(413.87,-541)">
			<title>Sheet.34</title>
			<desc>RX (HW codec to nRF5340)</desc>
			<rect x="0" y="544.053" width="127.877" height="33.3804" class="st11"/>
			<text x="4" y="557.44" class="st12">RX <tspan x="4" dy="1.2em" class="st7">(HW codec to nRF5340)</tspan></text>		</g>
		<g id="shape36-22" transform="translate(285.709,-539.583)">
			<title>Sheet.36</title>
			<desc>TX (nRF5340 to HW codec)</desc>
			<rect x="0" y="540.583" width="127.877" height="36.8504" class="st11"/>
			<text x="109.82" y="555.71" class="st12">TX <tspan x="5.28" dy="1.2em" class="st7">(nRF5340 to HW codec)</tspan></text>		</g>
		<g id="shape58-26" transform="translate(2.84596,-410.765)">
			<title>Sheet.58</title>
			<desc>bad_frame</desc>
			<rect x="0" y="556.173" width="53.1496" height="21.2598" class="st11"/>
			<text x="4" y="569.5" class="st13">bad_frame</text>		</g>
		<g id="shape65-29" transform="translate(128.988,-410.401)">
			<title>Sheet.65</title>
			<desc>sdu_ref</desc>
			<rect x="0" y="556.173" width="42.5197" height="21.2598" class="st11"/>
			<text x="5.16" y="569.8" class="st14">sdu_ref</text>		</g>
		<g id="shape76-32" transform="translate(201.271,-410.765)">
			<title>Sheet.76</title>
			<desc>cur_time</desc>
			<rect x="0" y="556.173" width="53.1496" height="21.2598" class="st11"/>
			<text x="4" y="569.8" class="st14">cur_time</text>		</g>
		<g id="shape79-35" transform="translate(320.326,-52.0236)">
			<title>Sheet.79</title>
			<desc>frame_start_ts</desc>
			<rect x="0" y="560.425" width="76.9606" height="17.0079" class="st11"/>
			<text x="4" y="571.93" class="st15">frame_start_ts</text>		</g>
		<g id="shape84-38" transform="translate(454.618,-393.598)">
			<title>Sheet.84</title>
			<desc>Synchronization module (audio_datapath.c)</desc>
			<rect x="0" y="540.583" width="98.1496" height="36.8504" class="st11"/>
			<text x="10.18" y="550.01" class="st16">Synchronization <tspan x="31.3" dy="1.2em" class="st7">module </tspan><tspan
						x="4.63" dy="1.2em" class="st7">(audio_datapath.c)</tspan></text>		</g>
		<g id="shape102-43" transform="translate(9.77374,-446.198)">
			<title>Nordic Middle Grey.102</title>
			<desc>streamctrl.c</desc>
			<rect x="0" y="520.903" width="127.877" height="56.5296" class="st1"/>
			<text x="77.37" y="570.73" class="st2">streamctrl.c</text>		</g>
		<g id="shape103-46" transform="translate(17.6032,-465.1)">
			<title>Nordic Lake.103</title>
			<desc>Bluetooth LE RX FIFO</desc>
			<rect x="0" y="544.053" width="112.677" height="33.3804" class="st17"/>
			<text x="27.71" y="557.74" class="st18">Bluetooth LE <tspan x="36.62" dy="1.2em" class="st7">RX FIFO</tspan></text>		</g>
		<g id="shape107-50" transform="translate(49.5468,-188.949)">
			<title>Nordic Lake.107</title>
			<desc>I2S TX FIFO</desc>
			<rect x="0" y="544.053" width="53.1496" height="33.3804" class="st3"/>
			<text x="19.07" y="557.74" class="st6">I2S <tspan x="7.41" dy="1.2em" class="st7">T</tspan>X FIFO</text>		</g>
		<g id="shape108-54" transform="translate(159.46,-139.581)">
			<title>Nordic Lake.108</title>
			<desc>I2S block complete</desc>
			<rect x="0" y="544.053" width="53.1496" height="33.3804" class="st3"/>
			<text x="6.01" y="557.74" class="st6">I2S block <tspan x="6.29" dy="1.2em" class="st7">complete</tspan></text>		</g>
		<g id="shape110-58" transform="translate(159.46,-71.1485)">
			<title>Nordic Sky.110</title>
			<desc>pcm_mix.c</desc>
			<rect x="0" y="553.321" width="53.1496" height="24.1125" class="st8"/>
			<text x="5.07" y="568.08" class="st9">pcm_mix.c</text>		</g>
		<g id="shape112-61" transform="translate(181.854,-260.892)">
			<title>Nordic Light Grey.112</title>
			<desc>Presentation compensation (Executed every time a new package ...</desc>
			<rect x="0" y="513.281" width="84.189" height="64.1525" class="st19"/>
			<text x="17.87" y="523.76" class="st20">Presentation <tspan x="14.98" dy="1.2em" class="st7">compensation  </tspan><tspan
						x="4.52" dy="2.4em" class="st21">(Executed every time </tspan><tspan x="11.19" dy="1.2em" class="st21">a new package is </tspan><tspan
						x="25.64" dy="1.2em" class="st21">received)</tspan></text>		</g>
		<g id="shape113-68" transform="translate(278.232,-355.489)">
			<title>Nordic Light Grey.113</title>
			<desc>Drift compensation (Executed every time an I2S block is compl...</desc>
			<rect x="0" y="513.281" width="84.189" height="64.1525" class="st22"/>
			<text x="32.85" y="521.06" class="st23">Drift <tspan x="11.59" dy="1.2em" class="st7">compensation  </tspan><tspan
						x="9.58" dy="2.4em" class="st21">(Executed every </tspan><tspan x="7.58" dy="1.2em" class="st21">time an I2S block </tspan><tspan
						x="15.33" dy="1.2em" class="st21">is completed)</tspan></text>		</g>
		<g id="shape118-75" transform="translate(428.043,-137.063)">
			<title>Nordic Lake.118</title>
			<desc>I2S block complete</desc>
			<rect x="0" y="544.053" width="53.1496" height="33.3804" class="st3"/>
			<text x="6.01" y="557.74" class="st6">I2S block <tspan x="6.29" dy="1.2em" class="st7">complete</tspan></text>		</g>
		<g id="shape126-79" transform="translate(76.1216,-188.949)">
			<title>Dynamic connector.126</title>
			<path d="M0 577.43 L0 610.11 L76.3 610.11" class="st24"/>
		</g>
		<g id="shape127-85" transform="translate(178.948,-139.581)">
			<title>Dynamic connector.127</title>
			<path d="M7.09 577.43 L7.09 614.71" class="st24"/>
		</g>
		<g id="shape129-90" transform="translate(95.3121,-116.698)">
			<title>Dynamic connector.129</title>
			<path d="M0 577.43 L90.72 577.43 L90.72 591.83" class="st24"/>
		</g>
		<g id="shape131-95" transform="translate(447.531,-137.063)">
			<title>Dynamic connector.131</title>
			<path d="M7.09 584.11 L7.09 584.47 L7.09 680.12" class="st26"/>
		</g>
		<g id="shape132-101" transform="translate(327.413,-34.3804)">
			<title>Dynamic connector.132</title>
			<path d="M-7.09 577.43 L-7.09 263.36" class="st24"/>
		</g>
		<g id="shape133-106" transform="translate(266.043,-292.969)">
			<title>Dynamic connector.133</title>
			<path d="M6.68 577.43 L7.04 577.43 L54.28 577.43 L54.28 836.02" class="st26"/>
		</g>
		<g id="shape134-111" transform="translate(194.185,-325.045)">
			<title>Dynamic connector.134</title>
			<path d="M7.09 570.75 L7.09 570.39 L7.09 482.31 L7.09 482.31 L7.09 462.44" class="st27"/>
		</g>
		<g id="shape136-117" transform="translate(216.862,-231.44)">
			<title>Dynamic connector.136</title>
			<path d="M7.09 570.75 L7.09 570.39 L7.09 547.98" class="st29"/>
		</g>
		<g id="shape137-123" transform="translate(128.988,-446.198)">
			<title>Dynamic connector.137</title>
			<path d="M0 577.43 L0 636.07 L69.92 636.07 A2.3622 2.3622 0 0 1 74.65 636.07 L142.2 636.07" class="st31"/>
		</g>
		<g id="shape138-129" transform="translate(51.0349,-446.198)">
			<title>Dynamic connector.138</title>
			<path d="M0 577.43 L0 636.07 L41.57 636.07 A2.3622 2.3622 0 0 1 46.3 636.07 L147.87 636.07 A2.3622 2.3622 0 1 1 152.6
						 636.07 L220.16 636.07" class="st31"/>
		</g>
		<g id="shape139-134" transform="translate(51.0349,-446.198)">
			<title>Dynamic connector.139</title>
			<path d="M0 577.43 L0 636.07 L41.57 636.07 A2.3622 2.3622 0 0 1 46.3 636.07 L147.87 636.07 A2.3622 2.3622 0 1 1 152.6
						 636.07 L172.91 636.07 L172.91 691.55" class="st31"/>
		</g>
		<g id="shape140-139" transform="translate(104.893,-332.654)">
			<title>Sheet.140</title>
			<desc>Estimate sdu_ref if incoming sdu_ref is invalid or if bad_fra...</desc>
			<rect x="0" y="525.832" width="76.9606" height="51.6011" class="st11"/>
			<text x="4.72" y="532.73" class="st13">Estimate sdu_ref <tspan x="16.97" dy="1.2em" class="st7">if incoming </tspan><tspan
						x="4.96" dy="1.2em" class="st7">sdu_ref is invalid </tspan><tspan x="8.22" dy="1.2em" class="st7">or if bad_frame </tspan><tspan
						x="26.23" dy="1.2em" class="st7">is true</tspan></text>		</g>
		<g id="shape142-146" transform="translate(181.854,-179.839)">
			<title>Sheet.142</title>
			<desc>Adjust placement of audio blocks in FIFO to synchronize audio</desc>
			<rect x="0" y="525.832" width="84.189" height="51.6011" class="st32"/>
			<text x="7.58" y="538.13" class="st33">Adjust placement <tspan x="7.32" dy="1.2em" class="st7">of audio blocks in </tspan><tspan
						x="26.84" dy="1.2em" class="st7">FIFO to </tspan><tspan x="5.82" dy="1.2em" class="st7">synchronize audio</tspan></text>		</g>
		<g id="shape143-152" transform="translate(447.531,-170.443)">
			<title>Dynamic connector.143</title>
			<path d="M7.09 570.75 L7.09 570.39 L7.09 282.73" class="st34"/>
		</g>
		<g id="shape144-159" transform="translate(337.334,-264.785)">
			<title>Nordic Lake.144</title>
			<desc>Audio clock (PPL) fine adjustment for synchronizing audio</desc>
			<rect x="0" y="520.903" width="68.0315" height="56.5296" class="st32"/>
			<text x="11" y="530.27" class="st33">Audio clock <tspan x="14.01" dy="1.2em" class="st7">(PPL) fine </tspan><tspan
						x="5.5" dy="1.2em" class="st7">adjustment for </tspan><tspan x="6.5" dy="1.2em" class="st7">synchronizing </tspan><tspan
						x="23.01" dy="1.2em" class="st7">audio</tspan></text>		</g>
		<g id="shape145-166" transform="translate(181.854,-198.553)">
			<title>Dynamic connector.145</title>
			<path d="M0 570.35 L-72.12 570.35" class="st35"/>
		</g>
		<g id="shape146-172" transform="translate(359.799,-387.565)">
			<title>Dynamic connector.146</title>
			<path d="M2.62 577.43 L11.55 577.43 L11.55 636.64" class="st35"/>
		</g>
		<g id="shape147-177" transform="translate(178.948,-71.1485)">
			<title>Dynamic connector.147</title>
			<path d="M7.09 577.43 L7.09 607.16" class="st24"/>
		</g>
		<g id="group169-182" transform="translate(52.4523,-85.4619)">
			<title>Sheet.169</title>
			<g id="shape111-183">
				<title>Nordic Light Grey.111</title>
				<desc>tone.c</desc>
				<rect x="0" y="525.832" width="46.2047" height="51.6011" class="st1"/>
				<text x="10.84" y="570.73" class="st2">tone.c</text>			</g>
			<g id="shape109-186" transform="translate(3.62835,-14.5462)">
				<title>Nordic Lake.109</title>
				<desc>Tone</desc>
				<rect x="0" y="544.053" width="39.2315" height="33.3804" class="st3"/>
				<text x="8.22" y="563.74" class="st6">Tone</text>			</g>
		</g>
		<g id="group172-189" transform="translate(31.1924,-260.892)">
			<title>Sheet.172</title>
			<g id="shape105-190">
				<title>Nordic Light Grey</title>
				<rect x="0" y="513.281" width="84.189" height="64.1525" class="st1"/>
			</g>
			<g id="shape104-192" transform="translate(15.5197,-17.4799)">
				<title>Nordic Lake.37</title>
				<desc>Decoder</desc>
				<rect x="0" y="544.053" width="53.1496" height="33.3804" class="st17"/>
				<text x="7.68" y="563.74" class="st18">Decoder</text>			</g>
			<g id="shape123-195" transform="translate(7.22834,0)">
				<title>Sheet.123</title>
				<desc>sw_codec_select.c</desc>
				<rect x="0" y="559.953" width="76.9606" height="17.4799" class="st11"/>
				<text x="4.91" y="570.43" class="st36">sw_codec_select.c</text>			</g>
		</g>
		<g id="shape121-198" transform="translate(67.6176,-278.372)">
			<title>Dynamic connector.121</title>
			<path d="M7.09 577.43 L7.09 626.44" class="st24"/>
		</g>
		<g id="group180-203" transform="translate(155.367,-465.1)">
			<title>Sheet.180</title>
			<g id="shape148-204">
				<title>Nordic Blue.88</title>
				<rect x="0" y="500.065" width="247.533" height="77.3683" class="st37"/>
			</g>
			<g id="shape149-206" transform="translate(9.8103,-62.1805)">
				<title>Nordic Lake.89</title>
				<rect x="0" y="567.372" width="16.0192" height="10.0608" class="st17"/>
			</g>
			<g id="shape150-208" transform="translate(146.62,-72.8551)">
				<title>Dynamic connector.90</title>
				<path d="M0 584.5 L0 584.54 L-12.71 584.54" class="st31"/>
			</g>
			<g id="shape151-213" transform="translate(150.455,-60.7159)">
				<title>Sheet.151</title>
				<desc>Control data</desc>
				<rect x="0" y="567.372" width="71.5663" height="10.0608" class="st11"/>
				<text x="4" y="575.1" class="st2">Control data</text>			</g>
			<g id="shape152-216" transform="translate(146.62,-60.6661)">
				<title>Dynamic connector.93</title>
				<path d="M0 584.5 L0 584.54 L-12.71 584.54" class="st38"/>
			</g>
			<g id="shape153-222" transform="translate(150.455,-48.5269)">
				<title>Sheet.153</title>
				<desc>Compressed audio</desc>
				<rect x="0" y="567.372" width="97.0781" height="10.0608" class="st11"/>
				<text x="4" y="575.1" class="st2">Compressed audio</text>			</g>
			<g id="shape154-225" transform="translate(146.62,-48.4772)">
				<title>Dynamic connector.95</title>
				<path d="M0 584.5 L0 584.54 L-12.71 584.54" class="st24"/>
			</g>
			<g id="shape155-230" transform="translate(150.455,-36.3379)">
				<title>Sheet.155</title>
				<desc>Uncompressed audio</desc>
				<rect x="0" y="567.372" width="97.0781" height="10.0608" class="st11"/>
				<text x="4" y="575.1" class="st2">Uncompressed audio</text>			</g>
			<g id="shape156-233" transform="translate(9.8103,-37.8674)">
				<title>Nordic Lake.97</title>
				<rect x="0" y="567.372" width="16.0192" height="10.0608" class="st3"/>
			</g>
			<g id="shape157-235" transform="translate(30.5818,-49.9125)">
				<title>Sheet.157</title>
				<desc>Block working on compressed audio</desc>
				<rect x="0" y="556.173" width="97.0781" height="21.2598" class="st11"/>
				<text x="4" y="564.1" class="st2">Block working on <tspan x="4" dy="1.2em" class="st7">compressed audio</tspan></text>			</g>
			<g id="shape158-239" transform="translate(30.7987,-26.6684)">
				<title>Sheet.158</title>
				<desc>Block working on uncompressed audio</desc>
				<rect x="0" y="556.173" width="97.0781" height="21.2598" class="st11"/>
				<text x="4" y="564.1" class="st2">Block working on <tspan x="4" dy="1.2em" class="st7">uncompressed audio</tspan></text>			</g>
			<g id="shape165-243" transform="translate(30.7987,-2.81661)">
				<title>Sheet.165</title>
				<desc>Application source files</desc>
				<rect x="0" y="553.321" width="97.0781" height="24.1125" class="st11"/>
				<text x="4" y="562.68" class="st2">Application <tspan x="4" dy="1.2em" class="st7">source files</tspan></text>			</g>
			<g id="shape166-247" transform="translate(9.81029,-14.3497)">
				<title>Nordic Lake.120</title>
				<rect x="0" y="571.286" width="16.0192" height="6.14675" class="st8"/>
			</g>
			<g id="shape167-249" transform="translate(9.81029,-8.20295)">
				<title>Nordic Lake.121</title>
				<rect x="0" y="571.286" width="16.0192" height="6.14675" class="st1"/>
			</g>
			<g id="shape173-251" transform="translate(130.6,-23.0151)">
				<title>Nordic Lake.173</title>
				<rect x="0" y="567.372" width="16.0192" height="10.0608" class="st32"/>
			</g>
			<g id="shape174-253" transform="translate(149.738,-23.0151)">
				<title>Sheet.174</title>
				<desc>Adjustments</desc>
				<rect x="0" y="567.372" width="97.0781" height="10.0608" class="st11"/>
				<text x="4" y="575.1" class="st2">Adjustments</text>			</g>
			<g id="shape177-256" transform="translate(130.6,-13.3948)">
				<title>Nordic Lake.177</title>
				<rect x="0" y="571.286" width="16.0192" height="6.14675" class="st22"/>
			</g>
			<g id="shape178-258" transform="translate(130.6,-7.24803)">
				<title>Nordic Lake.178</title>
				<rect x="0" y="571.286" width="16.0192" height="6.14675" class="st19"/>
			</g>
			<g id="shape179-260" transform="translate(149.876,-8.20295)">
				<title>Sheet.179</title>
				<desc>Compensations</desc>
				<rect x="0" y="567.372" width="97.0781" height="10.0608" class="st11"/>
				<text x="4" y="575.1" class="st2">Compensations</text>			</g>
		</g>
		<g id="shape119-263" transform="translate(43.9483,-446.198)">
			<title>Dynamic connector</title>
			<path d="M7.09 577.43 L7.09 704.84" class="st31"/>
		</g>
		<g id="shape120-268" transform="translate(87.8853,-446.198)">
			<title>Dynamic connector.120</title>
			<path d="M7.09 577.43 L7.09 704.84" class="st38"/>
		</g>
	</g>
</svg>
